<?xml version="1.0" encoding="UTF-8"?>
<svg xmlns="http://www.w3.org/2000/svg" viewBox="0 0 1200 700" role="img" aria-label="Skills illustration">
  <defs>
    <linearGradient id="g" x1="0" y1="0" x2="1" y2="1">
      <stop offset="0" stop-color="#111111" stop-opacity="0.10"/>
      <stop offset="1" stop-color="#111111" stop-opacity="0.02"/>
    </linearGradient>
  </defs>
  <rect width="1200" height="700" fill="#ffffff"/>
  <rect x="56" y="56" width="1088" height="588" rx="28" fill="url(#g)"/>

  <g fill="#111111" fill-opacity="0.18">
    <rect x="160" y="170" width="880" height="380" rx="28"/>
  </g>

  <g fill="#ffffff" fill-opacity="0.35">
    <rect x="220" y="230" width="420" height="22" rx="11"/>
    <rect x="220" y="270" width="360" height="18" rx="9"/>
  </g>

  <g fill="#ffffff" fill-opacity="0.30">
    <rect x="220" y="330" width="140" height="44" rx="22"/>
    <rect x="380" y="330" width="120" height="44" rx="22"/>
    <rect x="520" y="330" width="150" height="44" rx="22"/>
    <rect x="690" y="330" width="120" height="44" rx="22"/>
    <rect x="830" y="330" width="120" height="44" rx="22"/>
  </g>

  <g stroke="#111111" stroke-width="14" stroke-linecap="round" fill="none" opacity="0.35">
    <path d="M260 470h260"/>
    <path d="M260 520h420"/>
  </g>

  <g fill="#111111" fill-opacity="0.12">
    <circle cx="940" cy="240" r="70"/>
    <circle cx="920" cy="520" r="90"/>
  </g>
</svg>
